<svg id="Layer_1" data-name="Layer 1" xmlns="http://www.w3.org/2000/svg" xmlns:xlink="http://www.w3.org/1999/xlink" viewBox="0 0 400 600"><defs><radialGradient id="radial-gradient" cx="540.31" cy="611.97" r="228.53" gradientTransform="translate(-1982.47 -1701.1) scale(4.11 4.11)" gradientUnits="userSpaceOnUse"><stop offset="0" stop-color="#ffa017"/><stop offset="0.65" stop-color="#86525e"/><stop offset="1" stop-color="#412587"/></radialGradient><clipPath id="clip-path"><path d="M0,600V368.7l23.3-33.87c53.44-64.58,157.45-134.68,256.5-128S399,264,372.13,301s-30.91,59.15,4,93.43l23.83,19V600Z" fill="none"/></clipPath><clipPath id="clip-path-2"><path d="M557,500.78c-48.39-.22-115.68-9.42-165-19.11-24.3-4.77-44.25-9.56-44.25-9.56S308.3,488.34,283.4,507C234.33,543.82,153,585.15,153,585.15L406,600,577.8,585.8Z" fill="none"/></clipPath><clipPath id="clip-path-3"><path d="M-54,471.25c48.39-.23,98.28-13,147.61-23.08s76.88-8.74,126,29.57S350,559.07,350,559.07l125.28,52.77L-67.1,628.47Z" fill="none"/></clipPath><clipPath id="clip-path-4"><path d="M-84.31,525.62c47.81,7.53,115.71,9.2,166,7.53,24.74-.82,45.21-2.35,45.21-2.35s36.29,22.32,57.88,44.74c42.55,44.18,116.22,98,116.22,98L48.85,647.71l-167.32-41.5Z" fill="none"/></clipPath></defs><title>Landscape Vector Pack - Scene 2</title><rect width="400" height="600" fill="#412587"/><rect width="400" height="600" fill="url(#radial-gradient)"/><g clip-path="url(#clip-path)"><path d="M112.24,464.29c33-21.62,69.9-37,118.3-26.89s178.79,68.56,252.72,41-11.87,128.38-11.87,128.38l-158.62,6.05L112.24,553Z" fill="#744ed1"/><g clip-path="url(#clip-path-2)"><path d="M386.77,472.73a6.08,6.08,0,0,0-2.2.54c-.42.2-.84.43-1.26.65l-1.25.8a36.59,36.59,0,0,0-4.73,4.06,78.54,78.54,0,0,0-8.23,9.88,137.66,137.66,0,0,0-12.86,22.51c-1.81,3.93-3.48,7.91-4.95,12s-2.85,8.13-4,12.26a172.43,172.43,0,0,0-5.21,25.06L324.55,557a189.44,189.44,0,0,1,9.21-26.43c1.83-4.27,3.86-8.45,6-12.55s4.46-8.1,6.92-12a147.55,147.55,0,0,1,16.71-22,84.26,84.26,0,0,1,10.24-9.44,40.67,40.67,0,0,1,6-3.9c.55-.28,1.13-.53,1.69-.79s1.2-.45,1.83-.65a9.31,9.31,0,0,1,4.36-.27Z" fill="#40198c"/><path d="M375.63,470.34a5.87,5.87,0,0,0-3.24.15,17.76,17.76,0,0,0-3.1,1.28,40.46,40.46,0,0,0-5.69,3.7,91.17,91.17,0,0,0-10.12,9.14,165.45,165.45,0,0,0-17.13,21.18,197.57,197.57,0,0,0-24.15,47.93l-16.39-7.12A211.33,211.33,0,0,1,329.25,500a173,173,0,0,1,21.07-19,94.23,94.23,0,0,1,11.88-7.75,42.45,42.45,0,0,1,6.5-2.89,19,19,0,0,1,3.5-.84,6.59,6.59,0,0,1,3.59.41Z" fill="#40198c"/></g><path d="M-54,471.25c48.39-.23,98.28-13,147.61-23.08s76.88-8.74,126,29.57,218.5,126.81,218.5,126.81L95.48,643.19-65.64,611Z" fill="#552ba5"/><g clip-path="url(#clip-path-3)"><path d="M115.53,438.68a8.58,8.58,0,0,1,4.23.29c.6.22,1.23.42,1.81.68s1.15.52,1.68.82a40.25,40.25,0,0,1,6,4.08,86.5,86.5,0,0,1,10.29,9.86,153.91,153.91,0,0,1,16.79,22.84,191,191,0,0,1,13,25.36,202.24,202.24,0,0,1,9.3,27.2l-18,3.46a185.8,185.8,0,0,0-5-25.95,180,180,0,0,0-8.71-25.2,146.68,146.68,0,0,0-12.69-23.58,80.8,80.8,0,0,0-8.24-10.47,36.06,36.06,0,0,0-4.82-4.38c-.42-.32-.86-.58-1.3-.88s-.88-.49-1.33-.74a6,6,0,0,0-2.51-.61Z" fill="#744ed1"/><path d="M126.69,438.06a7.61,7.61,0,0,1,4.4-.44,19.52,19.52,0,0,1,3.77,1,44,44,0,0,1,6.73,3.26,99,99,0,0,1,12,8.4,179.64,179.64,0,0,1,21,20.21,222.16,222.16,0,0,1,32.84,48.61l-16.88,7A208,208,0,0,0,166.23,477a170.82,170.82,0,0,0-17.18-21.76,93.25,93.25,0,0,0-10.12-9.38,41.05,41.05,0,0,0-5.6-3.74,16.81,16.81,0,0,0-2.93-1.26,5.12,5.12,0,0,0-2.59-.21Z" fill="#744ed1"/></g><path d="M380,558.76c-29.71-25.88-82.57-45.7-131.95-43.49S60.6,554.35-8,515.32s-8.81,128.62-8.81,128.62l155.6,31.35,315.91-41.07S411.48,586.17,380,558.76Z" fill="#3f1f8c"/><g clip-path="url(#clip-path-4)"><path d="M88,521.28a9.25,9.25,0,0,1,4.27,1c.59.29,1.15.61,1.7.93s1,.69,1.54,1.05a41.42,41.42,0,0,1,5.3,4.81,84.09,84.09,0,0,1,8.6,11,146.91,146.91,0,0,1,13,24.39c1.8,4.24,3.46,8.56,4.91,13s2.8,8.84,3.92,13.35a189.63,189.63,0,0,1,4.87,27.56l-17.86.66a173.76,173.76,0,0,0-1.13-25.56c-.49-4.27-1.18-8.52-2-12.75s-1.81-8.44-3-12.61a138,138,0,0,0-9.1-24.27,77.25,77.25,0,0,0-6.54-11.07,36,36,0,0,0-4-4.76l-1.11-1L90.26,526a5.91,5.91,0,0,0-2.09-.88Z" fill="#220c59"/><path d="M99.46,524.16a6.61,6.61,0,0,1,3.61.18,18.59,18.59,0,0,1,3.32,1.38,43,43,0,0,1,6,3.9,94.83,94.83,0,0,1,10.48,9.54,173,173,0,0,1,17.76,22.13,211.07,211.07,0,0,1,25.56,51.34L148.84,617a197.75,197.75,0,0,0-16.18-51.17,165.48,165.48,0,0,0-13.52-23.66,92,92,0,0,0-8.53-10.64,39.29,39.29,0,0,0-5-4.55,17.59,17.59,0,0,0-2.86-1.76,5.9,5.9,0,0,0-3.17-.68Z" fill="#220c59"/></g></g></svg>