<svg id="Layer_1" data-name="Layer 1" xmlns="http://www.w3.org/2000/svg" xmlns:xlink="http://www.w3.org/1999/xlink" viewBox="0 0 400 600"><defs><linearGradient id="linear-gradient" x1="156.36" y1="461.95" x2="305.77" y2="-92.51" gradientUnits="userSpaceOnUse"><stop offset="0" stop-color="#fff"/><stop offset="1" stop-color="#688af2"/></linearGradient><clipPath id="clip-path"><rect y="1.82" width="400" height="600" fill="none"/></clipPath><linearGradient id="linear-gradient-2" x1="191.38" y1="44.22" x2="211.51" y2="411.96" gradientUnits="userSpaceOnUse"><stop offset="0" stop-color="#6d85ff"/><stop offset="0.18" stop-color="#a8b6ff" stop-opacity="0.8"/><stop offset="1" stop-color="#fff" stop-opacity="0.5"/></linearGradient><linearGradient id="linear-gradient-3" x1="214.29" y1="-71.91" x2="192.59" y2="70.17" xlink:href="#linear-gradient-2"/><linearGradient id="linear-gradient-4" x1="-18.71" y1="225.77" x2="425.68" y2="225.77" xlink:href="#linear-gradient-2"/><linearGradient id="linear-gradient-5" x1="210.45" y1="358.95" x2="210.45" y2="139.85" xlink:href="#linear-gradient-2"/><linearGradient id="linear-gradient-6" x1="146.32" y1="388.05" x2="238.07" y2="590.12" gradientUnits="userSpaceOnUse"><stop offset="0" stop-color="#6d85ff"/><stop offset="1" stop-color="#fff"/></linearGradient><linearGradient id="linear-gradient-7" x1="162.42" y1="218.82" x2="162.42" y2="428.4" xlink:href="#linear-gradient-6"/><linearGradient id="linear-gradient-8" x1="184.46" y1="348.9" x2="95.97" y2="378.86" xlink:href="#linear-gradient-2"/><linearGradient id="linear-gradient-9" x1="197.83" y1="365.55" x2="158.6" y2="367.1" xlink:href="#linear-gradient-2"/><linearGradient id="linear-gradient-10" x1="185.3" y1="366" x2="158.43" y2="367.06" xlink:href="#linear-gradient-2"/><linearGradient id="linear-gradient-11" x1="6374.66" y1="366" x2="6347.79" y2="367.06" gradientTransform="matrix(-1, 0, 0.1, 1, 6508.6, 0)" xlink:href="#linear-gradient-2"/><linearGradient id="linear-gradient-12" x1="132.31" y1="366.46" x2="211.62" y2="366.13" xlink:href="#linear-gradient-2"/><linearGradient id="linear-gradient-13" x1="211.15" y1="362.61" x2="46.51" y2="393.06" xlink:href="#linear-gradient-2"/><radialGradient id="radial-gradient" cx="205.1" cy="554.31" r="151.28" gradientUnits="userSpaceOnUse"><stop offset="0.02" stop-color="#a55819"/><stop offset="1" stop-color="#824514"/></radialGradient><linearGradient id="linear-gradient-14" x1="210.43" y1="575.92" x2="253.79" y2="512.44" xlink:href="#linear-gradient-2"/><radialGradient id="radial-gradient-2" cx="404" cy="561.02" r="179.54" xlink:href="#radial-gradient"/><linearGradient id="linear-gradient-15" x1="53.62" y1="385.79" x2="148.49" y2="490.04" xlink:href="#linear-gradient-2"/><linearGradient id="linear-gradient-16" x1="193.82" y1="-0.55" x2="205.43" y2="196.09" xlink:href="#linear-gradient-2"/><linearGradient id="linear-gradient-17" x1="126.41" y1="173.93" x2="122.54" y2="97.29" xlink:href="#linear-gradient-2"/><linearGradient id="linear-gradient-18" x1="296.13" y1="132.03" x2="293.76" y2="85.04" xlink:href="#linear-gradient-2"/><linearGradient id="linear-gradient-19" x1="6378.96" y1="-574.27" x2="6376.59" y2="-621.26" gradientTransform="matrix(-0.98, 0.21, 0.21, 0.98, 6391.28, -717.1)" xlink:href="#linear-gradient-2"/><linearGradient id="linear-gradient-20" x1="6318.26" y1="-545.61" x2="6315.89" y2="-592.59" gradientTransform="matrix(-0.98, 0.21, 0.21, 0.98, 6385.78, -728.63)" xlink:href="#linear-gradient-2"/></defs><title>Landscape Vector Pack - Scene 7</title><rect y="-1.82" width="400" height="603.65" fill="url(#linear-gradient)"/><g clip-path="url(#clip-path)"><polygon points="-4 142.18 409.42 104.24 409.42 121.27 -14.06 214.18 -4 142.18" fill="url(#linear-gradient-2)"/><polygon points="-4 19 409.42 -13.5 409.42 3.54 -14.06 70.18 -4 19" fill="url(#linear-gradient-3)"/><path d="M419.48,169.27C415.61,167-18.71,250.56-18.71,250.56v31.75L425.68,270Z" fill="url(#linear-gradient-4)"/><polygon points="421.81 279.21 -0.9 309.4 -0.9 258.31 417.94 260.63 421.81 279.21" fill="url(#linear-gradient-5)"/><polygon points="119.1 438.69 421.03 317.92 421.03 441.16 0 441.16 0 408.5 119.1 438.69" fill="#fff"/><path d="M215.1,254.44C188,196.37,164,130.56,104.39,149.92S9.16,217.27,9.16,217.27l91.36,99.1H203.19Z" fill="#eda76e"/><path d="M185.68,301.82c11.61-36.55,27.87-96.16,58.84-79.13s34.06,16.26,48,16.26,55.74,143.5,64.25,205.69c0,0-107.61.25-156.77-6.72Z" fill="#d6893c"/><path d="M400,386.75c-20.68,25.61-42.45,37.46-42.45,37.46l-35.61,30L207.35,486.61l-57.29,43.64-49.54,21.48h144l-8,13.93H363.74l-44.9,36.16H461.29Z" fill="none"/><path d="M139.81,448s9.48-139.35-48.58-216.77S-23.35,202.56-23.35,202.56V448Z" fill="#e09653"/><polygon points="214.35 448.98 191.1 286.18 119.1 286.18 110.58 448.37 -4.96 448.37 -4.77 585.02 406.32 585.02 406.32 430.95 214.35 448.98" fill="url(#linear-gradient-6)"/><polygon points="214.26 447.37 110.58 447.37 119.09 286.18 191.09 286.18 214.26 447.37" fill="url(#linear-gradient-7)"/><polygon points="123.23 286.18 115.48 447.47 139.81 447.47 134.6 286.18 123.23 286.18" fill="url(#linear-gradient-8)"/><polygon points="157.8 286.18 150.57 447.47 173.29 447.47 173.31 286.18 157.8 286.18" fill="url(#linear-gradient-9)"/><polygon points="161.29 286.18 153.94 447.47 167.48 447.47 167.5 286.18 161.29 286.18" fill="url(#linear-gradient-10)"/><polygon points="186.5 286.18 209.97 447.47 196.43 447.47 180.28 286.18 186.5 286.18" fill="url(#linear-gradient-11)"/><polygon points="138.19 446.95 138.97 285.92 147.74 285.92 138.19 446.95" fill="url(#linear-gradient-12)"/><polygon points="179.48 286.18 188.26 446.95 200 446.95 183.1 286.18 179.48 286.18" fill="url(#linear-gradient-13)"/><path d="M113.94,425.82c-10.33-33.55-2.59-35.09,4.12-24.77s4.65-5.68,4.13-11.87,3.62-4.65,5.16,4.13,5.68,7.22,5.17,1.54,3.61-4.64,5.67,7.23,6.71-5.16,8.78-7.23,4.13,2.07,6.19,9.3,3.1-1.55,6.19-7.23,3.62-5.16,6.2-2.07,5.68-1.54,8.77,3.1,3.12,19.61,8.79,10.32,9.79-15.48,10.31-9.29,5.61,3.1,9.77-6.71,6.75-1.54,7.78,4.13,2.58,2.58,4.64-.51,3.62,1-1.55,13.42-10.87,38.06-10.87,38.06H119.61Z" fill="#fff"/><polygon points="214.26 448.37 110.58 448.37 119.09 286.18 191.09 286.18 214.26 448.37" fill="none"/><path d="M111.35,448h28.46s-31-43.6-62.52-105.29c-51.1-99.87-95.61-103-95.61-103V448Z" fill="#d6893c"/><path d="M152.1,448.76c38.61,0,47.32,18.66,118.93,11.45s148.45-15.57,148.45-15.57-5.61-88.36-88.25-78.33S231.35,434,200,413.49,152.1,448.76,152.1,448.76Z" fill="#bc6e28"/><path d="M-11.74,448H111.35S100.52,383-9.42,383Z" fill="#bc6e28"/><polygon points="104.77 536.84 166.12 528.11 200 550.64 410.19 493.4 410.19 615.21 0 615.21 0 519.73 104.77 536.84" fill="url(#radial-gradient)"/><polygon points="166.12 528.11 134.6 560.24 128.39 554.82 113.68 574.18 85.03 588.14 61.03 606.69 78.06 606.69 121.42 583.47 128.39 593.53 158.58 574.18 160.13 564.89 169.42 567.21 200 550.64 166.12 528.11" fill="#280b08"/><polygon points="104.77 536.84 73.16 568.76 45.29 567.73 20.52 588.14 36.52 585.79 50.97 573.92 78.32 574.95 116.29 535.2 104.77 536.84" fill="#280b08"/><path d="M209.94,497c-21.16.42-35.36,5.67-9.94,5.67s71.35-.51,57.42,2.58-9.29,3.1,3.61,6.2,15.49,5.16,36.13,1.55,53.16-5.68,25.29-9.81-25.29-9.29-16-12.39-34.58-3.61-55.22-2.06-8.78,3.61,2.58,3.61S262.06,496,209.94,497Z" fill="url(#linear-gradient-14)"/><path d="M274.71,503c24.59-25,80.52-69.68,131.61-72v64.26a418.83,418.83,0,0,1-44.9,2.32c-25.55,0-21.68-6.19-51.87,5.42S268.58,509.18,274.71,503Z" fill="url(#radial-gradient-2)"/><polygon points="40.13 559.47 60.24 559.98 78.32 547.08 61.9 536.87 40.13 559.47" fill="#280b08"/><polygon points="31.87 548.63 13.81 557.4 7.1 578.57 -3.23 588.14 -3.23 597.66 15.87 578.05 20.52 562.57 24.13 564.63 27.23 558.43 31.87 548.63" fill="#280b08"/><path d="M62.32,454.69C19.15,457.13,6.06,462.52,35,463c34.58.52,58.84,6.71,34.06,7.74s-29.93,5.24-8.77,6.75,67.09,1.59,96,0,57.8.56,70.19,0,19.13-6.75-15.48-6.75c-42.32,0-35.1-5.67-23.74-6.19s16.51-4.65-13.94-4.13-80-1.55-58.84-3.1S113.85,451.78,62.32,454.69Z" fill="url(#linear-gradient-15)"/><polygon points="410.97 39.21 -14.84 103.47 -9.81 108.5 411.74 74.82 410.97 39.21" fill="url(#linear-gradient-16)"/><polygon points="-17.16 129.02 273.94 85.66 -28.77 110.44 -17.16 129.02" fill="url(#linear-gradient-17)"/><polygon points="417.16 76.37 167.1 106.56 421.81 91.02 417.16 76.37" fill="url(#linear-gradient-18)"/><polygon points="-95.02 40.99 155.78 17.65 -96.46 56.29 -95.02 40.99" fill="url(#linear-gradient-19)"/><polygon points="-32.27 68 218.44 43.75 -33.65 83.31 -32.27 68" fill="url(#linear-gradient-20)"/><polygon points="329.68 659.38 291.74 659.38 302.58 394.61 318.84 394.61 329.68 659.38" fill="#280b08"/><path d="M303.31,421.22a28.41,28.41,0,0,1-28.41-28.41" fill="none" stroke="#280b08" stroke-miterlimit="10" stroke-width="10"/><path d="M318.28,512.11A40.82,40.82,0,0,0,359.1,471.3" fill="none" stroke="#280b08" stroke-miterlimit="10" stroke-width="10"/><path d="M375.35,395.05a31.57,31.57,0,0,1-.39,5H225.54a17.14,17.14,0,0,1,17.14-17.14,18.18,18.18,0,0,1,2.68.2,23.77,23.77,0,0,1,23.42-19.67,23.49,23.49,0,0,1,9.23,1.87,23.9,23.9,0,1,1,47.55,4.76,23.74,23.74,0,0,1,15-6.38,3.5,3.5,0,0,1-.3.24,30.36,30.36,0,0,1,3.33-.22H344A31.36,31.36,0,0,1,375.35,395.05Z" fill="#160504"/><path d="M343.57,363.69a30.36,30.36,0,0,0-3.33.22,3.5,3.5,0,0,0,.3-.24c.43,0,.88-.05,1.32-.05S343,363.64,343.57,363.69Z" fill="#160504"/><path d="M270.69,599.53a14.44,14.44,0,0,1-.18,2.29H201.56a7.92,7.92,0,0,1,7.92-7.91,8.39,8.39,0,0,1,1.23.1,11,11,0,0,1,10.81-9.08,10.85,10.85,0,0,1,4.26.87,11,11,0,0,1,22,1c0,.42,0,.83-.07,1.24a10.93,10.93,0,0,1,6.91-2.94l-.14.11a13,13,0,0,1,1.54-.1h.19A14.47,14.47,0,0,1,270.69,599.53Z" fill="#160504"/><path d="M256,585.06a13,13,0,0,0-1.54.1l.14-.11c.2,0,.41,0,.61,0A7,7,0,0,1,256,585.06Z" fill="#160504"/><path d="M368.64,467.92a20.81,20.81,0,0,1-1,6.3H327.8a20.91,20.91,0,1,1,39.92-12.46c.13.43.25.87.35,1.31A21,21,0,0,1,368.64,467.92Z" fill="#160504"/><path d="M336.12,474.22H311.18a12.47,12.47,0,1,1,24.94,0Z" fill="#160504"/><circle cx="366.37" cy="449.29" r="13.89" fill="#160504"/><path d="M397.82,474.22H362.57a17.55,17.55,0,0,1,3.88-11,17.15,17.15,0,0,1,1.27-1.42,17.52,17.52,0,0,1,10.38-5,16.22,16.22,0,0,1,2.1-.13A17.62,17.62,0,0,1,397.82,474.22Z" fill="#160504"/><path d="M388.63,593.51a38.71,38.71,0,0,1-1.8,11.71H312.77a38.84,38.84,0,1,1,74.15-23.15c.24.8.47,1.62.65,2.44A38.69,38.69,0,0,1,388.63,593.51Z" fill="#160504"/><path d="M328.22,605.22H281.89a23.17,23.17,0,1,1,46.33,0Z" fill="#160504"/><circle cx="384.41" cy="558.91" r="25.79" fill="#160504"/><path d="M442.84,605.22H377.36a32.61,32.61,0,0,1,7.2-20.51,35,35,0,0,1,2.36-2.64,32.54,32.54,0,0,1,19.29-9.36,29.6,29.6,0,0,1,3.9-.24A32.74,32.74,0,0,1,442.84,605.22Z" fill="#160504"/></g></svg>