    <svg
      width="467"
      height="467"
      viewBox="0 0 467 467"
      fill="none"
      xmlns="http://www.w3.org/2000/svg"
    >
      <path
        d="M400.285 382.94C337.386 393.316 271.291 390.602 206.538 372.068C165.033 360.159 137.043 343.646 117.567 311.934C103.09 288.431 109.811 224.51 76.0481 206.582C59.2288 212.448 47.2546 226.692 47.2546 243.358V375.213C45.7733 465.336 216.177 453.617 250.049 453.822C283.994 454.048 432.311 439.082 465.424 410.953C468.189 396.038 438.272 394.746 400.285 382.896"
        fill="#00B1CB"
      />
      <path
        fill-rule="evenodd"
        clip-rule="evenodd"
        d="M215.017 370.338C171.725 329.053 162.866 275.333 172.761 232.675C177.905 210.639 187.727 187.741 206.509 167.325C249.517 120.435 306.432 116.4 349.542 132.767C371.944 141.311 395.761 158.05 410.975 184.691C437.579 231.165 429.195 287.504 389.974 322.858C366.799 343.603 341.618 349.615 316.276 347.134C287.723 344.398 247.78 323.055 238.009 282.71C229.859 249.05 248.656 196.768 296.187 191.076C313.452 189.018 339.122 195.155 352.826 217.469C364.566 236.572 361.137 263.133 342.982 275.727C329.702 284.972 315.539 283.951 303.798 269.977C304.688 268.27 309.446 271.655 312.919 271.925C317.012 272.167 321.092 271.268 324.704 269.328C345.865 257.543 340.239 233.529 322.814 222.059C308.855 212.784 288.387 215.659 274.91 231.209C261.009 247.218 259.521 270.794 269.649 288.745C288.664 322.412 334.087 329.768 365.668 307.082C400.139 282.382 405.648 238.761 390.726 206.181C376.738 175.65 350.892 161.422 326.586 155.372C292.554 146.937 248.13 156.533 219.074 196.571C191.412 234.741 184.808 293.203 226.656 341.26C240.79 357.467 253.552 365.924 269.51 373.33C297.888 386.596 329.053 391.083 364.34 380.598C399.11 370.2 433.434 340.377 448.999 309.023C463.527 279.762 468.904 247.094 463.016 215.302C456.544 180.094 436.207 144.135 404.057 119.713C377.686 99.6681 345.098 87.7887 313.62 85.4829C283.615 83.2647 243.862 91.9042 212.923 111.431L196.155 123.609C137.196 178.372 118.136 244.883 136.868 311.54C147.251 348.17 170.849 385.91 201.708 410.464C204.955 413.01 229.757 396.25 215.017 370.316"
        fill="#5BD7B8"
      />
      <path
        d="M146.302 196.41C146.302 220.65 116.823 240.337 80.4115 240.337C44.0001 240.337 14.5208 220.694 14.5208 196.41C14.5208 172.148 44.0001 152.483 80.4115 152.483C116.808 152.483 146.302 172.148 146.302 196.41Z"
        fill="#00B1CB"
      />
      <path
        d="M45.7733 185.494C45.7733 189.179 42.0008 192.185 37.309 192.185C32.6317 192.185 28.8373 189.179 28.8373 185.494V59.7541C28.8373 56.0619 32.6317 53.0629 37.309 53.0629C42.0008 53.0629 45.7733 56.0692 45.7733 59.7541V185.494ZM126.024 185.494C126.024 189.179 122.266 192.185 117.575 192.185C112.912 192.185 109.103 189.179 109.103 185.494V59.7541C109.103 56.0619 112.912 53.0629 117.575 53.0629C122.266 53.0629 126.024 56.0692 126.024 59.7541V185.494Z"
        fill="#00B1CB"
      />
      <path
        d="M166.42 65.2195C166.42 94.1735 147.09 117.567 123.259 117.567C99.4127 117.567 80.0468 94.1662 80.0468 65.2195C80.0468 36.3604 99.4127 12.9447 123.259 12.9447C147.09 12.9447 166.42 36.3604 166.42 65.2195Z"
        fill="white"
      />
      <path
        d="M88.9489 65.2195C88.9489 94.1589 69.6195 117.567 45.8317 117.567C21.9782 117.567 2.64148 94.1589 2.64148 65.2195C2.64148 36.3458 21.9782 12.9447 45.8317 12.9447C69.6195 12.9447 88.9489 36.3458 88.9489 65.2195Z"
        fill="white"
      />
      <path
        d="M74.4354 67.2626C74.4354 86.4461 61.6221 101.959 45.8317 101.959C30.0194 101.959 17.1404 86.4461 17.1404 67.2626C17.1404 48.1083 30.0121 32.5149 45.8317 32.5149C61.6221 32.5149 74.4354 48.101 74.4354 67.2626ZM151.863 67.2626C151.863 86.4461 139.078 101.959 123.266 101.959C107.476 101.959 94.604 86.4461 94.604 67.2626C94.604 48.1156 107.476 32.5149 123.266 32.5149C139.078 32.5149 151.863 48.1156 151.863 67.2626Z"
        fill="#25333A"
      />
      <path
        d="M55.4928 59.0755C55.4928 73.8152 45.6566 85.6726 33.6021 85.6726C21.4528 85.6726 11.6385 73.7787 11.6385 59.0755C11.6385 44.4088 21.4455 32.5149 33.6021 32.5149C45.6858 32.5149 55.4928 44.3869 55.4928 59.0755ZM131.03 59.0755C131.03 73.8152 121.23 85.6726 109.139 85.6726C97.0558 85.6726 87.1758 73.7787 87.1758 59.0755C87.1758 44.4088 97.0266 32.5149 109.139 32.5149C121.238 32.5149 131.03 44.3869 131.03 59.0755Z"
        fill="white"
      />
    </svg>

